<svg width="88" height="16" viewBox="0 0 88 16" fill="none" xmlns="http://www.w3.org/2000/svg">
  <path d="M0 15.5974H4.35618V10.1925H9.02955V6.96671H4.35618V3.71953H10.2138V0.322815H0V15.5974Z" fill="#EEECE8"/>
  <path d="M12.5791 15.5974H22.6448V12.2006H16.9353V0.322815H12.5791V15.5974Z" fill="#EEECE8"/>
  <path
    d="M31.1361 15.8537C35.3019 15.8537 37.8818 13.7815 37.8818 9.338V0.322815H33.5045V9.14573C33.5045 11.4316 32.9335 12.4143 31.1361 12.4143C29.2963 12.4143 28.7676 11.3675 28.7676 9.20982V0.322815H24.4326V9.40209C24.4326 13.6747 26.8645 15.8537 31.1361 15.8537Z"
    fill="#EEECE8"/>
  <path
    d="M39.9199 15.5974H44.3818L47.1943 10.3421L50.0068 15.5974H54.9551L50.2817 7.58623L54.3418 0.322815H49.9011L47.5749 4.87313L45.2065 0.322815H40.2794L44.5933 7.73577L39.9199 15.5974Z"
    fill="#EEECE8"/>
  <path
    d="M73.2812 15.5974H77.0876V6.00537L82.6069 15.5974H86.7939V0.322815H83.0086V8.9321L78.1661 0.322815H73.2812V15.5974Z"
    fill="#EEECE8"/>
  <path
    d="M62.808 15.8903C67.1203 15.8903 70.6161 12.3577 70.6161 8.00005C70.6161 3.64236 67.1203 0.109764 62.808 0.109764C58.4958 0.109764 55 3.64236 55 8.00005C55 12.3577 58.4958 15.8903 62.808 15.8903Z"
    fill="#0E35FF"/>
</svg>
